<svg width="192" height="192" viewBox="0 0 192 192" fill="none" xmlns="http://www.w3.org/2000/svg">
<g clip-path="url(#clip0_1_5)">
<rect width="192" height="192" fill="white"/>
<path opacity="0.9" d="M96 96L140.605 28.4427L151.644 36.7011L108.364 99.3129L96 96Z" fill="#FF1744"/>
<path opacity="0.8" d="M96 96L176.809 91.1496L178.442 104.839L104.566 103.596L96 96Z" fill="#2979FF"/>
<path opacity="0.9" d="M96 96L128.891 171.071L114.539 175.176L87.7416 107.039L96 96Z" fill="#00E676"/>
<path opacity="0.8" d="M96 96L15.1911 100.85L13.5585 87.1614L87.4341 88.4041L96 96Z" fill="#FFD740"/>
<path d="M34.1208 38.1804L23.2596 27.3192L19.6392 30.9396L30.5004 41.8008L34.1208 38.1804Z" fill="#FF4081"/>
<path d="M57.8511 54.103L44.5489 61.783L47.1089 66.217L60.4111 58.537L57.8511 54.103Z" fill="#7C4DFF"/>
<path d="M98.9609 21.275L84.1243 17.2995L82.7991 22.245L97.6357 26.2205L98.9609 21.275Z" fill="#00B0FF"/>
<path d="M132.9 40.1192L122.039 50.9804L125.66 54.6008L136.521 43.7396L132.9 40.1192Z" fill="#FFC400"/>
<path d="M173.737 91.1311L166.057 77.8289L161.623 80.3889L169.303 93.6911L173.737 91.1311Z" fill="#FF3D00"/>
<path d="M46.4357 106.899L31.5991 110.875L32.9243 115.82L47.7609 111.845L46.4357 106.899Z" fill="#1DE9B6"/>
<path d="M86.0111 151.383L72.7089 143.703L70.1489 148.137L83.4511 155.817L86.0111 151.383Z" fill="#D500F9"/>
<path d="M118.103 129.029L110.423 142.331L114.857 144.891L122.537 131.589L118.103 129.029Z" fill="#FF6D00"/>
<path d="M162.121 127.78L151.26 116.919L147.639 120.54L158.5 131.401L162.121 127.78Z" fill="#64DD17"/>
<path d="M57.6 74.24C59.7208 74.24 61.44 72.5208 61.44 70.4C61.44 68.2792 59.7208 66.56 57.6 66.56C55.4792 66.56 53.76 68.2792 53.76 70.4C53.76 72.5208 55.4792 74.24 57.6 74.24Z" fill="#FF4081"/>
<path d="M96 61.44C98.1208 61.44 99.84 59.7208 99.84 57.6C99.84 55.4792 98.1208 53.76 96 53.76C93.8792 53.76 92.16 55.4792 92.16 57.6C92.16 59.7208 93.8792 61.44 96 61.44Z" fill="#00B0FF"/>
<path d="M134.4 87.04C136.521 87.04 138.24 85.3208 138.24 83.2C138.24 81.0792 136.521 79.36 134.4 79.36C132.279 79.36 130.56 81.0792 130.56 83.2C130.56 85.3208 132.279 87.04 134.4 87.04Z" fill="#FFC400"/>
<path d="M83.2 125.44C85.3208 125.44 87.04 123.721 87.04 121.6C87.04 119.479 85.3208 117.76 83.2 117.76C81.0792 117.76 79.36 119.479 79.36 121.6C79.36 123.721 81.0792 125.44 83.2 125.44Z" fill="#7C4DFF"/>
<path d="M121.6 112.64C123.721 112.64 125.44 110.921 125.44 108.8C125.44 106.679 123.721 104.96 121.6 104.96C119.479 104.96 117.76 106.679 117.76 108.8C117.76 110.921 119.479 112.64 121.6 112.64Z" fill="#FF3D00"/>
<path d="M44.8 138.24C46.9208 138.24 48.64 136.521 48.64 134.4C48.64 132.279 46.9208 130.56 44.8 130.56C42.6792 130.56 40.96 132.279 40.96 134.4C40.96 136.521 42.6792 138.24 44.8 138.24Z" fill="#1DE9B6"/>
<path d="M160 61.44C162.121 61.44 163.84 59.7208 163.84 57.6C163.84 55.4792 162.121 53.76 160 53.76C157.879 53.76 156.16 55.4792 156.16 57.6C156.16 59.7208 157.879 61.44 160 61.44Z" fill="#D500F9"/>
<path d="M70.4 83.2L78.08 90.88L70.4 98.56L62.72 90.88L70.4 83.2Z" fill="#FF6D00"/>
<path d="M108.8 70.4L116.48 78.08L108.8 85.76L101.12 78.08L108.8 70.4Z" fill="#64DD17"/>
<path d="M134.4 134.4L142.08 142.08L134.4 149.76L126.72 142.08L134.4 134.4Z" fill="#FF4081"/>
<path d="M32 160L39.68 167.68L32 175.36L24.32 167.68L32 160Z" fill="#00B0FF"/>
<path d="M86.1816 32.3925L89.1394 41.136L96.5577 43.1237L89.6244 49.2169L90.1095 57.2978L81.5436 49.7019L70.3273 51.9972L74.7878 45.2414L71.83 36.498L79.2483 38.4857L86.1816 32.3925Z" fill="#FFD740"/>
<path d="M141.44 97.5434L149.714 101.634L156.365 97.7945L155.771 107.006L161.828 112.377L150.4 113.063L144.092 122.617L142.469 114.686L134.195 110.594L140.846 106.754L141.44 97.5434Z" fill="#FF1744"/>
</g>
<defs>
<clipPath id="clip0_1_5">
<rect width="192" height="192" fill="white"/>
</clipPath>
</defs>
</svg>
